<svg xmlns="http://www.w3.org/2000/svg" viewBox="0 0 576.33 354.94"><defs><style>.cls-1,.cls-3{fill:none;}.cls-1,.cls-2,.cls-3{stroke:#fff;}.cls-1,.cls-2{stroke-linecap:round;stroke-linejoin:round;}.cls-1{stroke-width:5.57px;}.cls-2,.cls-4{fill:#fff;}.cls-2{stroke-width:4.74px;}.cls-3{stroke-miterlimit:10;stroke-width:8.59px;}</style></defs><title>logo</title><g id="Layer_2" data-name="Layer 2"><g id="Layer_1-2" data-name="Layer 1"><polygon class="cls-1" points="256.14 116.93 320.19 116.93 288.16 19.63 256.14 116.93"/><polygon class="cls-2" points="320.41 117.7 255.92 117.7 288.16 214.23 320.41 117.7"/><ellipse class="cls-3" cx="288.16" cy="116.93" rx="102.57" ry="112.64"/><path class="cls-4" d="M30.82,354H5.75C1.88,354,0,351.67,0,348.3V287.84A3.6,3.6,0,0,1,3.67,284a3.61,3.61,0,0,1,3.76,3.86v59H30.82c2.48,0,3.87,1.59,3.87,3.47A3.66,3.66,0,0,1,30.82,354Z"/><path class="cls-4" d="M68.19,354.94C49.85,354.94,41,341.86,41,319.66c0-23.09,9.81-36.28,27.26-36.28,18.13,0,27.15,13,27.15,35.19C95.44,341.07,86,354.94,68.19,354.94Zm-.89-64.72a19,19,0,0,0-10.41,2.88c-5.15,3.86-8.23,13.18-8.23,25.37,0,19,6.45,29.63,20.52,29.63,4.06,0,8.32-1.09,10.8-3.17,4.56-3.67,7.83-12.39,7.83-25.17C87.81,301.12,81.57,290.22,67.3,290.22Z"/><path class="cls-4" d="M155.21,350.88a3.63,3.63,0,0,1-3.67,3.47,3.73,3.73,0,0,1-3.27-1.89l-19.43-28.14-18.93,28.24a3.63,3.63,0,0,1-3.27,1.79,3.55,3.55,0,0,1-3.66-3.47,4.7,4.7,0,0,1,1.09-2.88l20.41-29.53L105,290.22a4.54,4.54,0,0,1-1.09-2.77,3.59,3.59,0,0,1,3.76-3.47,3.55,3.55,0,0,1,3.28,1.88l18,26.66,17.94-26.66a3.78,3.78,0,0,1,3.37-1.88,3.46,3.46,0,0,1,3.57,3.37,4.44,4.44,0,0,1-.89,2.77L133.4,318.27l20.82,29.83A4.78,4.78,0,0,1,155.21,350.88Z"/><path class="cls-4" d="M189.7,354.94c-18.34,0-27.16-13.08-27.16-35.28,0-23.09,9.81-36.28,27.26-36.28,18.13,0,27.15,13,27.15,35.19C217,341.07,207.54,354.94,189.7,354.94Zm-.89-64.72a19,19,0,0,0-10.41,2.88c-5.15,3.86-8.23,13.18-8.23,25.37,0,19,6.45,29.63,20.52,29.63,4.06,0,8.32-1.09,10.8-3.17,4.56-3.67,7.83-12.39,7.83-25.17C209.32,301.12,203.08,290.22,188.81,290.22Z"/><path class="cls-4" d="M251,354H238.76c-3.17,0-6-1.19-6-5.65V290.12c0-4.06,2.08-5.75,6.25-5.75h10.6c22,0,31.71,15,31.71,34.89C281.27,338.89,271.07,354,251,354Zm-.89-62.54h-9.92V347h10.11c5.75,0,11.1-1.29,14.37-3.37,5.16-4.36,9.12-13.38,9.12-23.49C273.74,304.4,266.61,291.41,250.06,291.41Z"/><path class="cls-4" d="M338.06,348.2a6.23,6.23,0,0,1,.7,2.48,3.47,3.47,0,0,1-3.57,3.67,4.38,4.38,0,0,1-3.87-2.78L318.64,326l-2.48.3H304.47v24.18a3.57,3.57,0,0,1-3.77,3.87,3.62,3.62,0,0,1-3.77-3.87V290c0-4.16,1.59-5.65,5.95-5.65h13.28c15.07,0,22.6,7.64,22.6,20,0,9.41-5.16,16.15-13.28,19.62ZM323.89,318c3.47-1.78,7.34-5.75,7.34-12.78,0-9.62-6.25-13.88-15-13.88H304.47v28.35h8.92A26.68,26.68,0,0,0,323.89,318Z"/><path class="cls-4" d="M378.3,354.94c-18.33,0-27.15-13.08-27.15-35.28,0-23.09,9.81-36.28,27.25-36.28,18.14,0,27.16,13,27.16,35.19C405.56,341.07,396.14,354.94,378.3,354.94Zm-.89-64.72A19,19,0,0,0,367,293.1c-5.16,3.86-8.23,13.18-8.23,25.37,0,19,6.44,29.63,20.52,29.63,4.06,0,8.32-1.09,10.8-3.17,4.56-3.67,7.83-12.39,7.83-25.17C397.93,301.12,391.68,290.22,377.41,290.22Z"/><path class="cls-4" d="M488.22,347.61v2.67c0,2.38-1.39,4.07-3.47,4.07-2.48,0-3.77-1.69-3.87-4.36l-2.28-55.21h-.29l-20.22,50.84a4.81,4.81,0,0,1-4,1.89c-2.57,0-3.86-1.49-4.56-3.47l-19.82-49.26h-.2l-2.18,55.5c-.19,2.58-1.68,4.07-3.86,4.07s-3.47-1.69-3.47-3.87V348.8l3.37-62.14a5.18,5.18,0,0,1,4.76-2.68c3.56,0,5,1.88,5.94,4.36l20,49.75h.3l20.22-51.63A5.1,5.1,0,0,1,479.3,284c3.57,0,5.45,2.18,5.65,6Z"/><path class="cls-4" d="M509.53,354.35a3.62,3.62,0,0,1-3.77-3.87V287.84a3.67,3.67,0,0,1,3.77-3.86,3.59,3.59,0,0,1,3.66,3.86v62.64A3.54,3.54,0,0,1,509.53,354.35Z"/><path class="cls-4" d="M574,352.07c-4.26,2-8.23,2.87-14.57,2.87-17.54,0-30.53-11.79-30.53-34.79,0-22.39,12.69-36.77,30.73-36.77A36.76,36.76,0,0,1,573,285.86c1.88.8,2.57,2,2.57,3.47a3.37,3.37,0,0,1-3.27,3.57,10.46,10.46,0,0,1-3.07-.6,31.73,31.73,0,0,0-10.41-1.78c-4.65,0-9.31,1.59-11.1,2.87-6,4-11.2,12.89-11.2,26,0,17.94,9,28.44,23.39,28.44a31.23,31.23,0,0,0,11.2-2.08,7.62,7.62,0,0,1,2-.49,3.2,3.2,0,0,1,3.27,3.37A4,4,0,0,1,574,352.07Z"/></g></g></svg>