<svg xmlns="http://www.w3.org/2000/svg" viewBox="0 0 576.33 464.75"><defs><style>.cls-1,.cls-3{fill:none;}.cls-1,.cls-2,.cls-3{stroke:#fff;}.cls-1,.cls-2{stroke-linecap:round;stroke-linejoin:round;}.cls-1{stroke-width:5.57px;}.cls-2,.cls-4{fill:#fff;}.cls-2{stroke-width:4.74px;}.cls-3{stroke-miterlimit:10;stroke-width:8.59px;}</style></defs><title>Asset 8</title><g id="Layer_2" data-name="Layer 2"><g id="Layer_1-2" data-name="Layer 1"><g id="zen_NEW" data-name="zen NEW"><polygon class="cls-1" points="256.14 116.93 320.19 116.93 288.16 19.63 256.14 116.93"/><polygon class="cls-2" points="320.41 117.7 255.92 117.7 288.16 214.23 320.41 117.7"/><ellipse class="cls-3" cx="288.16" cy="116.93" rx="102.57" ry="112.64"/><path class="cls-4" d="M30.82,354H5.75C1.88,354,0,351.67,0,348.3V287.84A3.6,3.6,0,0,1,3.67,284a3.61,3.61,0,0,1,3.76,3.86v59H30.82c2.48,0,3.87,1.59,3.87,3.47A3.66,3.66,0,0,1,30.82,354Z"/><path class="cls-4" d="M68.19,354.94C49.85,354.94,41,341.86,41,319.66c0-23.09,9.81-36.28,27.26-36.28,18.13,0,27.15,13,27.15,35.19C95.44,341.07,86,354.94,68.19,354.94Zm-.89-64.72a19,19,0,0,0-10.41,2.88c-5.15,3.86-8.23,13.18-8.23,25.37,0,19,6.45,29.63,20.52,29.63,4.06,0,8.32-1.09,10.8-3.17,4.56-3.67,7.83-12.39,7.83-25.17C87.81,301.12,81.57,290.22,67.3,290.22Z"/><path class="cls-4" d="M155.21,350.88a3.63,3.63,0,0,1-3.67,3.47,3.73,3.73,0,0,1-3.27-1.89l-19.43-28.14-18.93,28.24a3.63,3.63,0,0,1-3.27,1.79,3.55,3.55,0,0,1-3.66-3.47,4.7,4.7,0,0,1,1.09-2.88l20.41-29.53L105,290.22a4.54,4.54,0,0,1-1.09-2.77,3.59,3.59,0,0,1,3.76-3.47,3.55,3.55,0,0,1,3.28,1.88l18,26.66,17.94-26.66a3.78,3.78,0,0,1,3.37-1.88,3.46,3.46,0,0,1,3.57,3.37,4.44,4.44,0,0,1-.89,2.77L133.4,318.27l20.82,29.83A4.78,4.78,0,0,1,155.21,350.88Z"/><path class="cls-4" d="M189.7,354.94c-18.34,0-27.16-13.08-27.16-35.28,0-23.09,9.81-36.28,27.26-36.28,18.13,0,27.15,13,27.15,35.19C217,341.07,207.54,354.94,189.7,354.94Zm-.89-64.72a19,19,0,0,0-10.41,2.88c-5.15,3.86-8.23,13.18-8.23,25.37,0,19,6.45,29.63,20.52,29.63,4.06,0,8.32-1.09,10.8-3.17,4.56-3.67,7.83-12.39,7.83-25.17C209.32,301.12,203.08,290.22,188.81,290.22Z"/><path class="cls-4" d="M251,354H238.76c-3.17,0-6-1.19-6-5.65V290.12c0-4.06,2.08-5.75,6.25-5.75h10.6c22,0,31.71,15,31.71,34.89C281.27,338.89,271.07,354,251,354Zm-.89-62.54h-9.92V347h10.11c5.75,0,11.1-1.29,14.37-3.37,5.16-4.36,9.12-13.38,9.12-23.49C273.74,304.4,266.61,291.41,250.06,291.41Z"/><path class="cls-4" d="M338.06,348.2a6.23,6.23,0,0,1,.7,2.48,3.47,3.47,0,0,1-3.57,3.67,4.38,4.38,0,0,1-3.87-2.78L318.64,326l-2.48.3H304.47v24.18a3.57,3.57,0,0,1-3.77,3.87,3.62,3.62,0,0,1-3.77-3.87V290c0-4.16,1.59-5.65,5.95-5.65h13.28c15.07,0,22.6,7.64,22.6,20,0,9.41-5.16,16.15-13.28,19.62ZM323.89,318c3.47-1.78,7.34-5.75,7.34-12.78,0-9.62-6.25-13.88-15-13.88H304.47v28.35h8.92A26.68,26.68,0,0,0,323.89,318Z"/><path class="cls-4" d="M378.3,354.94c-18.33,0-27.15-13.08-27.15-35.28,0-23.09,9.81-36.28,27.25-36.28,18.14,0,27.16,13,27.16,35.19C405.56,341.07,396.14,354.94,378.3,354.94Zm-.89-64.72A19,19,0,0,0,367,293.1c-5.16,3.86-8.23,13.18-8.23,25.37,0,19,6.44,29.63,20.52,29.63,4.06,0,8.32-1.09,10.8-3.17,4.56-3.67,7.83-12.39,7.83-25.17C397.93,301.12,391.68,290.22,377.41,290.22Z"/><path class="cls-4" d="M488.22,347.61v2.67c0,2.38-1.39,4.07-3.47,4.07-2.48,0-3.77-1.69-3.87-4.36l-2.28-55.21h-.29l-20.22,50.84a4.81,4.81,0,0,1-4,1.89c-2.57,0-3.86-1.49-4.56-3.47l-19.82-49.26h-.2l-2.18,55.5c-.19,2.58-1.68,4.07-3.86,4.07s-3.47-1.69-3.47-3.87V348.8l3.37-62.14a5.18,5.18,0,0,1,4.76-2.68c3.56,0,5,1.88,5.94,4.36l20,49.75h.3l20.22-51.63A5.1,5.1,0,0,1,479.3,284c3.57,0,5.45,2.18,5.65,6Z"/><path class="cls-4" d="M509.53,354.35a3.62,3.62,0,0,1-3.77-3.87V287.84a3.67,3.67,0,0,1,3.77-3.86,3.59,3.59,0,0,1,3.66,3.86v62.64A3.54,3.54,0,0,1,509.53,354.35Z"/><path class="cls-4" d="M574,352.07c-4.26,2-8.23,2.87-14.57,2.87-17.54,0-30.53-11.79-30.53-34.79,0-22.39,12.69-36.77,30.73-36.77A36.76,36.76,0,0,1,573,285.86c1.88.8,2.57,2,2.57,3.47a3.37,3.37,0,0,1-3.27,3.57,10.46,10.46,0,0,1-3.07-.6,31.73,31.73,0,0,0-10.41-1.78c-4.65,0-9.31,1.59-11.1,2.87-6,4-11.2,12.89-11.2,26,0,17.94,9,28.44,23.39,28.44a31.23,31.23,0,0,0,11.2-2.08,7.62,7.62,0,0,1,2-.49,3.2,3.2,0,0,1,3.27,3.37A4,4,0,0,1,574,352.07Z"/><path class="cls-4" d="M108.92,452.24h-7.43c-1.48,0-2.6-.59-2.6-2.42V413.24c0-1.66.83-2.42,2.66-2.42h7c12.81,0,18.17,9.08,18.17,20.88S120.55,452.24,108.92,452.24Zm-.29-38.41h-6.55v35.4h6.61a15.23,15.23,0,0,0,8.91-2.42c3.42-2.83,5.9-8.44,5.9-14.81C123.5,422.56,119.43,413.83,108.63,413.83Z"/><path class="cls-4" d="M137.36,415.12a2.25,2.25,0,0,1,0-4.48,1.92,1.92,0,0,1,1.89,2.18C139.25,414.36,138.54,415.12,137.36,415.12Zm0,37.36a1.54,1.54,0,0,1-1.53-1.72V423.39a1.49,1.49,0,0,1,1.53-1.66,1.52,1.52,0,0,1,1.53,1.66v27.37A1.54,1.54,0,0,1,137.36,452.48Z"/><path class="cls-4" d="M170.4,452.48a1.57,1.57,0,0,1-1.53-1.72V433.24c0-5.61-3-8.85-7.73-8.85-3.13,0-6.61,2.12-8.73,4.78v21.59a1.57,1.57,0,1,1-3.13,0V423.39a1.6,1.6,0,0,1,1.59-1.66,1.54,1.54,0,0,1,1.54,1.6l-.12,3.18a13.06,13.06,0,0,1,10.21-5.13c5.54,0,9.44,4.25,9.44,10.27v19.11A1.54,1.54,0,0,1,170.4,452.48Z"/><path class="cls-4" d="M199.6,452.48a1.57,1.57,0,0,1-1.59-1.66V412.23a1.6,1.6,0,1,1,3.19,0v38.59A1.57,1.57,0,0,1,199.6,452.48Z"/><path class="cls-4" d="M232.41,413.89h-9.32v36.93a1.53,1.53,0,0,1-1.54,1.66,1.57,1.57,0,0,1-1.59-1.66V413.89h-9.32a1.46,1.46,0,0,1-1.54-1.54,1.52,1.52,0,0,1,1.54-1.53h21.77a1.53,1.53,0,0,1,1.59,1.53A1.5,1.5,0,0,1,232.41,413.89Z"/><path class="cls-4" d="M250.34,438.08H238.25a1.33,1.33,0,0,1-1.42-1.42,1.35,1.35,0,0,1,1.42-1.36h12.09a1.35,1.35,0,0,1,1.42,1.36A1.33,1.33,0,0,1,250.34,438.08Z"/><path class="cls-4" d="M283.21,450.94a1.5,1.5,0,0,1-1.48,1.48c-.7,0-1.18-.36-1.77-1.24l-11-14.7-4.37,4v10.26a1.54,1.54,0,1,1-3.07,0V409.93a1.54,1.54,0,1,1,3.07,0v26.91l15.17-14.46a1.86,1.86,0,0,1,1.35-.65,1.4,1.4,0,0,1,1.42,1.42,2.1,2.1,0,0,1-.77,1.47L271,434.54l11.63,15A2.36,2.36,0,0,1,283.21,450.94Z"/><path class="cls-4" d="M300.08,452.83c-7.26,0-12.69-4.25-12.69-15.52,0-11.51,5.85-15.93,12.69-15.93,7.38,0,12.75,4.25,12.75,15.46C312.83,448.52,306.87,452.83,300.08,452.83Zm-.29-28.62a10.08,10.08,0,0,0-5,1.18c-2.66,1.77-4.37,5.78-4.37,11.63,0,9.32,3.72,13,10,13a10.22,10.22,0,0,0,4.31-.89c3.07-1.59,5-5.66,5-11.92C309.76,427.87,306,424.21,299.79,424.21Z"/><path class="cls-4" d="M361.56,452.48a1.6,1.6,0,0,1-1.59-1.72V433.24c0-5.61-2.89-8.85-7.61-8.85-3.43,0-6.73,2.42-8.74,5.07a22.4,22.4,0,0,1,.18,3.37v17.93a1.54,1.54,0,1,1-3.07,0V433.24c0-5.61-3-8.85-7.67-8.85-3.13,0-6.37,2.12-8.5,4.78v21.59a1.57,1.57,0,0,1-1.53,1.72,1.55,1.55,0,0,1-1.59-1.72V423.39a1.6,1.6,0,0,1,1.59-1.66,1.53,1.53,0,0,1,1.53,1.6l-.05,3.12c2.89-3.48,6.31-5.07,9.85-5.07a9,9,0,0,1,8.56,5.78c3.18-4,6.9-5.78,10.67-5.78,5.67,0,9.51,4.31,9.51,10.27v19.11A1.58,1.58,0,0,1,361.56,452.48Z"/><path class="cls-4" d="M398.14,435.66c0,10.44-5,17.17-13.51,17.17a14,14,0,0,1-8.5-2.83v13.1a1.54,1.54,0,1,1-3.07,0V423.44a1.52,1.52,0,0,1,1.54-1.65,1.48,1.48,0,0,1,1.47,1.54v3.54a13.28,13.28,0,0,1,10.33-5.49C393.48,421.38,398.14,426.81,398.14,435.66ZM395,436c0-7.55-3.95-11.74-9.14-11.74a12.17,12.17,0,0,0-9.74,5.67v16a11.61,11.61,0,0,0,8.91,4.18,9.68,9.68,0,0,0,7-2.95C393.71,445,395,441.68,395,436Z"/><path class="cls-4" d="M424.16,452.48a1.42,1.42,0,0,1-1.42-1.6v-3.72a10.15,10.15,0,0,1-9.32,5.67c-5.61,0-9.15-3.95-9.15-8.68,0-7,5-10.5,18.35-9v-3.07c0-3.78-.76-5.31-1.65-6.26a9,9,0,0,0-5.55-1.53c-4.24,0-6.13,1.3-7.25,1.3a1.35,1.35,0,0,1-1.36-1.42,1.6,1.6,0,0,1,1.18-1.47,19,19,0,0,1,7-1.3c7,0,10.62,3,10.62,9.91V450.7C425.63,451.71,425.1,452.48,424.16,452.48ZM409,439a6.19,6.19,0,0,0-1.83,4.72c0,3.6,2.25,6.43,6.73,6.43,5.49,0,8.73-4.42,8.73-9.79v-2.6C414.89,436.72,410.53,437.61,409,439Z"/><path class="cls-4" d="M442.27,452.83a19.59,19.59,0,0,1-7.67-1.48,1.67,1.67,0,0,1-1.06-1.47,1.36,1.36,0,0,1,1.47-1.36c.95,0,3.13,1.54,7.85,1.54a8.92,8.92,0,0,0,4.78-1.07,4.55,4.55,0,0,0,2-3.95c0-2-1-4-7.61-7.2-5.54-2.71-8-4.9-8-8.85,0-4.66,3.65-7.61,9.38-7.61a17.28,17.28,0,0,1,6.61,1.24,1.52,1.52,0,0,1,1.06,1.47,1.4,1.4,0,0,1-1.42,1.42c-1.06,0-3.36-1.36-6.61-1.36A8.38,8.38,0,0,0,439,425a4.11,4.11,0,0,0-2.06,3.66c0,2.77,2.18,4.3,7.32,6.9,6.43,3.25,8.32,5.49,8.32,9.09C452.54,449.94,448.41,452.83,442.27,452.83Z"/><path class="cls-4" d="M467.17,452.83a19.59,19.59,0,0,1-7.67-1.48,1.67,1.67,0,0,1-1.07-1.47,1.37,1.37,0,0,1,1.48-1.36c.94,0,3.13,1.54,7.85,1.54a8.92,8.92,0,0,0,4.78-1.07,4.55,4.55,0,0,0,2-3.95c0-2-1-4-7.61-7.2-5.55-2.71-8-4.9-8-8.85,0-4.66,3.66-7.61,9.39-7.61a17.32,17.32,0,0,1,6.61,1.24,1.53,1.53,0,0,1,1.06,1.47,1.4,1.4,0,0,1-1.42,1.42c-1.06,0-3.36-1.36-6.61-1.36a8.35,8.35,0,0,0-4.13.83,4.11,4.11,0,0,0-2.06,3.66c0,2.77,2.18,4.3,7.31,6.9,6.44,3.25,8.32,5.49,8.32,9.09C477.43,449.94,473.3,452.83,467.17,452.83Z"/></g></g></g></svg>